nColumns=19
nRows=70
DataType=double
version=3
OpenSimVersion=4.1
endheader
time	ground_force_tibia_r_vx	ground_force_tibia_r_vy	ground_force_tibia_r_vz	ground_force_tibia_r_px	ground_force_tibia_r_py	ground_force_tibia_r_pz	ground_force_tibia_r_mx	ground_force_tibia_r_my	ground_force_tibia_r_mz	ground_force_tibia_l_vx	ground_force_tibia_l_vy	ground_force_tibia_l_vz	ground_force_tibia_l_px	ground_force_tibia_l_py	ground_force_tibia_l_pz	ground_force_tibia_l_mx	ground_force_tibia_l_my	ground_force_tibia_l_mz
2.385	26.3761	396.087	4.8125	0.340043	4.44089e-17	1.31936	-0.341935	-5.13478	-0.0623882	-27.266	249.467	-6.41478	0.489758	4.44089e-17	1.10257	0.437535	-4.00318	0.102938
2.39	26.6814	396.393	4.81352	0.339933	4.44089e-17	1.31953	-0.332782	-4.944	-0.0600365	-26.3493	248.552	-6.57	0.489723	4.44089e-17	1.10326	0.431635	-4.07161	0.107625
2.395	26.8335	397.004	4.81561	0.339027	4.44089e-17	1.31937	-0.332089	-4.91328	-0.0595976	-26.9599	249.162	-6.56845	0.490671	4.44089e-17	1.10495	0.423384	-3.91289	0.103152
2.4	26.987	396.698	4.96696	0.339837	4.44089e-17	1.31943	-0.340086	-4.99913	-0.0625928	-27.7215	247.941	-7.18156	0.491487	4.44089e-17	1.10561	0.43904	-3.92678	0.113738
2.405	26.8347	397.007	3.89972	0.33866	4.44089e-17	1.31907	-0.354136	-5.23928	-0.0514644	-27.5694	248.857	-6.72178	0.49155	4.44089e-17	1.10341	0.437933	-3.95302	0.106774
2.41	26.8363	396.088	4.81174	0.3397	4.44089e-17	1.31959	-0.342462	-5.05453	-0.0614033	-27.7231	250.079	-7.17668	0.490073	4.44089e-17	1.10436	0.460743	-4.15617	0.119272
2.415	26.9884	396.7	4.50869	0.338437	4.44089e-17	1.31943	-0.340065	-4.99858	-0.0568114	-28.1802	249.772	-6.87217	0.491025	4.44089e-17	1.10338	0.42932	-3.80523	0.104696
2.42	26.8376	395.783	4.65774	0.339809	4.44089e-17	1.31917	-0.357353	-5.27	-0.0620195	-28.3327	250.076	-6.41372	0.490144	4.44089e-17	1.10463	0.431294	-3.80679	0.0976328
2.425	26.837	396.393	4.65982	0.338897	4.44089e-17	1.31995	-0.349142	-5.15697	-0.060623	-28.3322	249.771	-6.56712	0.493215	4.44089e-17	1.10351	0.458474	-4.04182	0.10627
2.43	27.1435	395.783	4.81016	0.338083	4.44089e-17	1.31963	-0.361918	-5.27718	-0.0641365	-28.4847	250.076	-6.10866	0.492873	4.44089e-17	1.10334	0.47323	-4.15462	0.101486
2.435	27.1447	395.172	4.80782	0.338988	4.44089e-17	1.31982	-0.353214	-5.14208	-0.0625605	-29.2483	250.99	-5.9537	0.49238	4.44089e-17	1.10249	0.439883	-3.77479	0.0895412
2.44	27.2981	394.867	4.80664	0.339098	4.44089e-17	1.32013	-0.354049	-5.12131	-0.0623408	-28.9438	251.906	-5.64653	0.491895	4.44089e-17	1.101	0.427015	-3.71644	0.0833047
2.445	27.1468	394.256	4.65167	0.339656	4.44089e-17	1.31983	-0.355399	-5.16151	-0.0608985	-28.7896	250.38	-5.80287	0.494737	4.44089e-17	1.10342	0.461602	-4.01451	0.0930413
2.45	27.1485	393.34	4.64824	0.339285	4.44089e-17	1.3203	-0.361971	-5.24441	-0.061975	-29.4004	250.99	-5.95385	0.494564	4.44089e-17	1.10105	0.445247	-3.80106	0.0901665
2.455	27.3027	392.425	4.64487	0.340311	4.44089e-17	1.31939	-0.360858	-5.18663	-0.0613907	-28.9432	251.905	-5.34153	0.494635	4.44089e-17	1.10104	0.434304	-3.77994	0.0801518
2.46	27.3033	392.118	4.94885	0.340432	4.44089e-17	1.31924	-0.362627	-5.20788	-0.0657278	-29.2494	253.126	-5.03339	0.49107	4.44089e-17	1.10002	0.41267	-3.57127	0.0710145
2.465	27.3045	391.507	4.94656	0.340649	4.44089e-17	1.31965	-0.359167	-5.14995	-0.0650678	-29.4026	254.041	-4.57344	0.490596	4.44089e-17	1.09998	0.394339	-3.40711	0.0613376
2.47	27.0003	390.896	5.09675	0.34087	4.44089e-17	1.31913	-0.357213	-5.17153	-0.0674298	-29.2511	255.262	-4.26545	0.490279	4.44089e-17	1.09921	0.433242	-3.78071	0.0631762
2.475	26.6961	390.283	5.39954	0.341095	4.44089e-17	1.31908	-0.349969	-5.11636	-0.0707846	-29.7089	255.262	-4.5705	0.490804	4.44089e-17	1.09985	0.414203	-3.55888	0.0637223
2.48	26.6973	389.673	5.24469	0.341313	4.44089e-17	1.31853	-0.355621	-5.19064	-0.0698618	-29.8615	255.566	-4.11198	0.489948	4.44089e-17	1.1003	0.402814	-3.44742	0.0554681
2.485	26.393	389.061	5.5475	0.342248	4.44089e-17	1.31848	-0.352817	-5.2009	-0.074158	-29.251	255.565	-3.65446	0.489991	4.44089e-17	1.10059	0.38414	-3.35622	0.0479923
2.49	26.6984	389.062	5.24241	0.342241	4.44089e-17	1.31823	-0.355385	-5.17886	-0.0697824	-29.252	256.482	-3.95747	0.489474	4.44089e-17	1.09955	0.388222	-3.40394	0.0525221
2.495	26.6985	389.063	4.93722	0.341529	4.44089e-17	1.31914	-0.364961	-5.31838	-0.0674904	-28.9469	256.483	-4.26276	0.488912	4.44089e-17	1.1	0.414531	-3.67295	0.0610445
2.5	26.6994	388.452	5.08758	0.341753	4.44089e-17	1.31816	-0.357433	-5.20032	-0.0681088	-28.6423	257.094	-4.10883	0.487179	4.44089e-17	1.09877	0.398563	-3.57751	0.0571752
2.505	26.2421	388.145	5.23889	0.342576	4.44089e-17	1.31823	-0.360665	-5.33458	-0.0720021	-28.3361	255.875	-4.87478	0.488508	4.44089e-17	1.10113	0.405225	-3.65917	0.0697124
2.51	26.3928	389.368	5.09081	0.342831	4.44089e-17	1.3186	-0.361684	-5.33585	-0.0697639	-28.3354	255.263	-4.57105	0.489758	4.44089e-17	1.10086	0.397979	-3.58524	0.0642017
2.515	26.2402	389.367	5.09077	0.342124	4.44089e-17	1.31883	-0.362169	-5.37408	-0.0702631	-28.3371	257.094	-4.10893	0.488265	4.44089e-17	1.0994	0.376721	-3.41788	0.0546252
2.52	26.0875	389.367	5.24331	0.342831	4.44089e-17	1.31909	-0.356245	-5.31709	-0.0716013	-28.0313	256.484	-4.11048	0.485206	4.44089e-17	1.09986	0.377011	-3.44961	0.0552844
2.525	26.2402	389.367	5.09079	0.342477	4.44089e-17	1.31883	-0.362082	-5.37279	-0.0702466	-27.1153	256.178	-3.34858	0.486686	4.44089e-17	1.09822	0.351622	-3.32203	0.0434234
2.53	26.0885	388.756	5.08852	0.342346	4.44089e-17	1.31877	-0.362435	-5.4008	-0.0706924	-26.6584	257.094	-3.34655	0.485664	4.44089e-17	1.09476	0.369772	-3.56608	0.0464191
2.535	26.2429	387.534	5.38932	0.342451	4.44089e-17	1.31841	-0.36012	-5.31796	-0.0739553	-26.0474	256.483	-3.04303	0.485309	4.44089e-17	1.09799	0.349428	-3.44074	0.0408226
2.54	26.2434	387.229	5.23564	0.342204	4.44089e-17	1.31825	-0.36166	-5.3364	-0.0721523	-25.5908	257.704	-2.7351	0.481864	4.44089e-17	1.09907	0.310622	-3.12802	0.0331987
2.545	26.5461	388.756	5.24134	0.342001	4.44089e-17	1.31877	-0.361399	-5.29253	-0.0713557	-25.1327	257.399	-2.73597	0.481133	4.44089e-17	1.09757	0.324154	-3.31986	0.0352877
2.55	26.6997	388.147	4.93402	0.34187	4.44089e-17	1.31865	-0.379009	-5.50984	-0.0700397	-24.6751	257.4	-3.04129	0.483262	4.44089e-17	1.09756	0.322497	-3.36416	0.0397489
2.555	26.7006	387.535	5.08442	0.342094	4.44089e-17	1.31885	-0.368981	-5.35543	-0.0702626	-23.7598	257.706	-2.73569	0.481908	4.44089e-17	1.09755	0.286306	-3.10535	0.032965
2.56	27.0038	388.756	5.2416	0.342367	4.44089e-17	1.31944	-0.377009	-5.42757	-0.0731799	-22.9977	258.015	-4.1085	0.482023	4.44089e-17	1.09747	0.33067	-3.70984	0.0590736
2.565	27.0032	389.061	5.24275	0.341896	4.44089e-17	1.31891	-0.366285	-5.27743	-0.0711153	-22.6928	258.623	-2.88643	0.478791	4.44089e-17	1.0969	0.294525	-3.35662	0.0374624
2.57	27.1557	389.061	5.24284	0.342253	4.44089e-17	1.31913	-0.371437	-5.3216	-0.0717118	-22.2352	258.624	-3.19174	0.479319	4.44089e-17	1.09651	0.286617	-3.33374	0.0411424
2.575	27.1553	389.368	4.93882	0.341427	4.44089e-17	1.31927	-0.374637	-5.37175	-0.0681364	-22.0819	258.013	-3.04063	0.480526	4.44089e-17	1.09872	0.280416	-3.27648	0.0386126
2.58	28.0703	389.674	4.94031	0.341681	4.44089e-17	1.31916	-0.383915	-5.32955	-0.0675683	-21.9309	259.54	-2.88443	0.476246	4.44089e-17	1.09648	0.266958	-3.15929	0.0351113
2.585	27.4599	389.673	4.94014	0.34097	4.44089e-17	1.31893	-0.383531	-5.44255	-0.0689988	-21.6262	259.846	-3.18896	0.475905	4.44089e-17	1.097	0.27947	-3.35793	0.0412102
2.59	28.0716	388.758	4.93707	0.341306	4.44089e-17	1.31849	-0.378579	-5.24286	-0.0665823	-21.0161	260.151	-2.88324	0.475612	4.44089e-17	1.09744	0.267514	-3.31146	0.0367008
2.595	28.0716	388.758	4.63195	0.341654	4.44089e-17	1.31868	-0.391937	-5.42786	-0.0646714	-20.7106	259.845	-2.57886	0.474381	4.44089e-17	1.09759	0.244919	-3.07288	0.0304971
2.6	28.225	388.147	4.78242	0.340819	4.44089e-17	1.31863	-0.386101	-5.30961	-0.0654205	-20.5596	261.372	-2.57524	0.470677	4.44089e-17	1.09507	0.247091	-3.14123	0.03095
2.605	28.2259	387.536	4.78025	0.341755	4.44089e-17	1.3183	-0.395806	-5.43434	-0.0670325	-20.1005	260.15	-2.2731	0.474088	4.44089e-17	1.09768	0.234477	-3.0347	0.0265161
2.61	28.2259	387.536	4.62772	0.342105	4.44089e-17	1.31877	-0.398275	-5.46825	-0.0652985	-20.0998	259.235	-2.733	0.475033	4.44089e-17	1.09766	0.239976	-3.09506	0.0326298
2.615	27.768	387.535	4.62762	0.341385	4.44089e-17	1.31857	-0.383123	-5.34694	-0.0638487	-20.1005	259.845	-2.7315	0.47333	4.44089e-17	1.09791	0.238596	-3.08439	0.0324233
2.62	27.7687	386.923	4.93064	0.341617	4.44089e-17	1.31828	-0.379991	-5.2947	-0.0674715	-20.4057	259.844	-2.42617	0.472284	4.44089e-17	1.09754	0.231408	-2.94673	0.0275138
2.625	28.0719	388.144	4.93527	0.341887	4.44089e-17	1.31839	-0.388773	-5.37549	-0.0683496	-20.8646	260.76	-3.03414	0.472859	4.44089e-17	1.09696	0.259668	-3.24525	0.0377609
2.63	28.0717	388.143	5.24052	0.341892	4.44089e-17	1.31914	-0.377245	-5.21611	-0.0704255	-20.7109	259.539	-3.18964	0.47309	4.44089e-17	1.09813	0.240852	-3.01823	0.0370929
2.635	27.7662	388.45	4.47866	0.34176	4.44089e-17	1.31851	-0.398262	-5.5717	-0.0642393	-21.0157	258.929	-3.49611	0.477414	4.44089e-17	1.09726	0.266606	-3.28478	0.0443518
2.64	28.0716	388.143	4.78291	0.341882	4.44089e-17	1.31886	-0.391299	-5.41045	-0.0666704	-21.9319	259.538	-3.49428	0.474091	4.44089e-17	1.09899	0.28167	-3.33324	0.0448769
2.645	28.3757	388.755	4.63274	0.341304	4.44089e-17	1.31868	-0.391985	-5.3703	-0.0639971	-22.5417	258.926	-3.49547	0.477921	4.44089e-17	1.09762	0.266037	-3.05585	0.0412535
2.65	28.0707	388.446	5.24195	0.341779	4.44089e-17	1.31835	-0.375335	-5.19395	-0.0700906	-22.8468	258.621	-3.80121	0.479806	4.44089e-17	1.09901	0.294505	-3.33375	0.0489993
2.655	28.0702	388.752	4.93798	0.342017	4.44089e-17	1.31846	-0.38825	-5.37699	-0.0682991	-23.3042	258.314	-3.49654	0.482285	4.44089e-17	1.09951	0.272567	-3.02126	0.0408957
2.66	28.2216	389.362	5.09294	0.340739	4.44089e-17	1.31878	-0.382064	-5.27118	-0.0689481	-23.6098	258.619	-3.49565	0.480884	4.44089e-17	1.09857	0.2719	-2.97836	0.0402573
2.665	28.2214	389.361	5.24561	0.341445	4.44089e-17	1.31905	-0.370912	-5.11734	-0.0689428	-23.7629	258.924	-3.79998	0.477883	4.44089e-17	1.09764	0.273012	-2.97479	0.0436581
2.67	28.2227	388.444	5.39495	0.341785	4.44089e-17	1.31812	-0.373183	-5.13631	-0.0713364	-23.7632	259.229	-3.6466	0.482323	4.44089e-17	1.09748	0.289769	-3.16104	0.0444666
2.675	27.7638	389.054	5.24453	0.341909	4.44089e-17	1.31817	-0.379351	-5.31583	-0.0716586	-24.0675	258.312	-3.49602	0.479611	4.44089e-17	1.09846	0.275447	-2.95632	0.0400112
2.68	28.0678	389.664	5.39955	0.34134	4.44089e-17	1.31872	-0.373468	-5.18483	-0.071846	-24.2197	258.004	-2.88628	0.480507	4.44089e-17	1.09899	0.257847	-2.74676	0.0307279
2.685	28.3724	389.969	5.24829	0.341582	4.44089e-17	1.31886	-0.379734	-5.21931	-0.0702426	-24.3719	257.091	-4.10904	0.48197	4.44089e-17	1.09868	0.284903	-3.00534	0.048034
2.69	28.3732	389.358	5.39876	0.342158	4.44089e-17	1.31811	-0.372011	-5.105	-0.070785	-24.5245	257.09	-3.95633	0.482505	4.44089e-17	1.09978	0.290579	-3.04613	0.0468767
2.695	28.2199	389.662	5.39992	0.341696	4.44089e-17	1.31848	-0.377726	-5.21566	-0.0722784	-24.3716	256.48	-4.56812	0.485285	4.44089e-17	1.09956	0.303987	-3.19908	0.0569782
2.7	28.5245	389.968	5.24867	0.34264	4.44089e-17	1.31839	-0.378337	-5.17237	-0.0696161	-24.2179	255.259	-4.7236	0.485551	4.44089e-17	1.10129	0.3262	-3.43817	0.0636239
2.705	28.6774	389.662	5.24772	0.343458	4.44089e-17	1.31824	-0.377948	-5.13546	-0.0691612	-24.3706	254.955	-5.48714	0.486915	4.44089e-17	1.10085	0.341874	-3.57654	0.0769744
2.71	28.5247	389.661	5.24778	0.342749	4.44089e-17	1.31802	-0.372786	-5.09244	-0.0685828	-24.9813	255.258	-5.18095	0.487129	4.44089e-17	1.10058	0.33059	-3.37796	0.0685621
2.715	28.6759	390.269	5.86054	0.34325	4.44089e-17	1.3181	-0.37067	-5.04469	-0.0757544	-25.4386	254.647	-5.48734	0.487249	4.44089e-17	1.09999	0.338856	-3.39204	0.0730943
2.72	28.8278	390.574	5.70924	0.342429	4.44089e-17	1.31826	-0.367316	-4.97659	-0.0727455	-25.1337	254.648	-5.79255	0.489375	4.44089e-17	1.10151	0.360465	-3.65214	0.0830763
2.725	28.9807	390.269	5.7083	0.342547	4.44089e-17	1.31761	-0.376118	-5.06499	-0.0740835	-25.2863	254.647	-5.63982	0.48938	4.44089e-17	1.10116	0.36299	-3.6555	0.0809607
2.73	29.134	389.656	6.01143	0.34278	4.44089e-17	1.31756	-0.373038	-4.98925	-0.0769717	-25.5917	254.647	-5.94481	0.487744	4.44089e-17	1.10222	0.359591	-3.57805	0.0835308
